<svg width="44" height="44" fill="none" xmlns="http://www.w3.org/2000/svg"><rect width="44" height="44" rx="22" fill="#EBEBEB"/><g clip-path="url(#a)" fill="#989898"><path d="M23.944 20.743a2.75 2.75 0 1 1-3.889 3.89 2.75 2.75 0 0 1 3.89-3.89Z"/><path d="M30.25 15.125h-1.9l-1.376-2.75h-9.95l-1.374 2.751-1.897.004a2.755 2.755 0 0 0-2.746 2.748L11 28.875a2.753 2.753 0 0 0 2.75 2.75h16.5a2.753 2.753 0 0 0 2.75-2.75v-11a2.753 2.753 0 0 0-2.75-2.75ZM22 28.188a5.506 5.506 0 0 1-5.5-5.5c0-3.033 2.467-5.5 5.5-5.5 3.032 0 5.5 2.467 5.5 5.5 0 3.032-2.468 5.5-5.5 5.5Z"/></g><defs><clipPath id="a"><path fill="#fff" transform="translate(11 11)" d="M0 0h22v22H0z"/></clipPath></defs></svg>